<svg width="2000px" height="1075px"
 viewBox="0.00 0.00 975.08 524.19" xmlns="http://www.w3.org/2000/svg" xmlns:xlink="http://www.w3.org/1999/xlink">
<g id="graph0" class="graph" transform="scale(1.0 1.0) rotate(0) translate(4 520.19)">
<title>ContextMapGraph</title>
<polygon fill="white" stroke="transparent" points="-4,4 -4,-520.19 971.08,-520.19 971.08,4 -4,4"/>
<!-- CatalogProductosContext -->
<g id="node1" class="node">
<title>CatalogProductosContext</title>
<polygon fill="none" stroke="black" stroke-width="2" points="164.95,-428.05 176.25,-427.54 187.57,-427.16 198.84,-426.89 210.03,-426.76 221.1,-426.75 232,-426.87 242.69,-427.13 253.13,-427.51 263.28,-428.02 273.11,-428.66 282.58,-429.42 291.67,-430.31 300.34,-431.32 308.57,-432.46 316.34,-433.71 323.62,-435.07 330.41,-436.55 336.68,-438.12 342.43,-439.8 347.65,-441.58 352.33,-443.44 356.47,-445.39 360.07,-447.42 363.13,-449.51 365.66,-451.68 367.67,-453.9 369.16,-456.17 370.15,-458.48 370.65,-460.83 370.66,-463.21 370.22,-465.62 369.33,-468.03 368.01,-470.45 366.28,-472.87 364.15,-475.28 361.65,-477.68 358.8,-480.05 355.6,-482.39 352.09,-484.69 348.27,-486.95 344.17,-489.15 339.8,-491.3 335.17,-493.38 330.3,-495.39 325.2,-497.33 319.89,-499.19 314.38,-500.96 308.67,-502.64 302.78,-504.23 296.71,-505.72 290.47,-507.11 284.08,-508.4 277.52,-509.57 270.82,-510.64 263.98,-511.6 256.99,-512.44 249.87,-513.17 242.61,-513.78 235.23,-514.28 227.73,-514.66 220.11,-514.92 212.38,-515.07 204.54,-515.1 196.61,-515.01 188.59,-514.81 180.49,-514.5 172.32,-514.08 164.09,-513.55 155.82,-512.92 147.52,-512.17 139.21,-511.33 130.91,-510.39 122.63,-509.35 114.4,-508.22 106.24,-506.99 98.17,-505.68 90.22,-504.29 82.42,-502.81 74.78,-501.26 67.36,-499.63 60.16,-497.94 53.22,-496.18 46.57,-494.36 40.25,-492.48 34.28,-490.55 28.69,-488.57 23.52,-486.54 18.79,-484.48 14.53,-482.38 10.77,-480.25 7.53,-478.1 4.84,-475.92 2.72,-473.73 1.19,-471.53 0.27,-469.32 -0.03,-467.12 0.31,-464.92 1.29,-462.73 2.92,-460.55 5.21,-458.4 8.15,-456.27 11.74,-454.18 15.97,-452.12 20.84,-450.11 26.33,-448.14 32.42,-446.23 39.1,-444.38 46.34,-442.6 54.12,-440.88 62.4,-439.24 71.15,-437.68 80.35,-436.21 89.94,-434.83 99.91,-433.54 110.19,-432.36 120.76,-431.27 131.56,-430.3 142.56,-429.43 153.71,-428.68 164.95,-428.05"/>
<text text-anchor="middle" x="193.53" y="-467.74" font-family="sans-serif" font-size="16.00">CatalogProductosContext</text>
</g>
<!-- GestionOrdenesContext -->
<g id="node2" class="node">
<title>GestionOrdenesContext</title>
<polygon fill="none" stroke="black" stroke-width="2" points="350.83,-344.97 347.11,-347.66 342.98,-350.3 338.45,-352.86 333.55,-355.35 328.28,-357.74 322.66,-360.03 316.72,-362.21 310.47,-364.28 303.93,-366.22 297.12,-368.02 290.06,-369.69 282.78,-371.21 275.28,-372.58 267.61,-373.79 259.76,-374.85 251.77,-375.74 243.66,-376.48 235.45,-377.05 227.15,-377.45 218.8,-377.7 210.4,-377.78 201.99,-377.71 193.58,-377.48 185.18,-377.1 176.83,-376.57 168.54,-375.9 160.32,-375.09 152.2,-374.15 144.2,-373.09 136.33,-371.91 128.61,-370.62 121.06,-369.23 113.69,-367.74 106.53,-366.16 99.58,-364.5 92.87,-362.77 86.41,-360.98 80.21,-359.13 74.29,-357.22 68.66,-355.28 63.34,-353.29 58.34,-351.28 53.67,-349.25 49.35,-347.19 45.38,-345.13 41.79,-343.06 38.57,-340.99 35.75,-338.92 33.32,-336.86 31.3,-334.81 29.69,-332.77 28.51,-330.75 27.75,-328.75 27.43,-326.77 27.55,-324.82 28.11,-322.89 29.11,-320.99 30.56,-319.12 32.45,-317.28 34.78,-315.47 37.56,-313.69 40.77,-311.95 44.42,-310.24 48.49,-308.57 52.98,-306.94 57.88,-305.34 63.17,-303.79 68.86,-302.27 74.92,-300.81 81.33,-299.38 88.09,-298.01 95.18,-296.68 102.57,-295.41 110.25,-294.2 118.19,-293.04 126.38,-291.95 134.79,-290.93 143.39,-289.98 152.17,-289.1 161.09,-288.31 170.13,-287.59 179.26,-286.97 188.46,-286.44 197.69,-286.01 206.92,-285.68 216.13,-285.46 225.29,-285.35 234.37,-285.35 243.34,-285.47 252.17,-285.72 260.83,-286.09 269.3,-286.59 277.55,-287.22 285.55,-287.99 293.27,-288.89 300.7,-289.92 307.81,-291.09 314.58,-292.39 320.98,-293.82 327,-295.38 332.62,-297.08 337.82,-298.89 342.59,-300.83 346.91,-302.88 350.77,-305.05 354.17,-307.31 357.09,-309.67 359.52,-312.12 361.47,-314.66 362.92,-317.26 363.88,-319.92 364.35,-322.64 364.32,-325.4 363.81,-328.19 362.81,-331 361.33,-333.82 359.39,-336.64 356.98,-339.45 354.13,-342.23 350.83,-344.97"/>
<text text-anchor="middle" x="193.53" y="-325.72" font-family="sans-serif" font-size="16.00">GestionOrdenesContext</text>
</g>
<!-- CatalogProductosContext&#45;&gt;GestionOrdenesContext -->
<g id="edge1" class="edge">
<title>CatalogProductosContext&#45;&gt;GestionOrdenesContext</title>
<path fill="none" stroke="black" stroke-width="2" d="M193.53,-427.01C193.53,-411.43 193.53,-393.81 193.53,-377.92"/>
<text text-anchor="middle" x="269.03" y="-399.3" font-family="sans-serif" font-size="12.00"> &#160;&#160;&#160;&#160;&#160;&#160;&#160;&#160;&#160;&#160;&#160;&#160;&#160;&#160;&#160;&#160;&#160;&#160;&#160;&#160;&#160;&#160;&#160;&#160;&#160;&#160;&#160;&#160;&#160;&#160;&#160;&#160;&#160;&#160;&#160;&#160;&#160;&#160;&#160;</text>
<polygon fill="white" stroke="transparent" points="186.53,-368.92 186.53,-385.92 200.53,-385.92 200.53,-368.92 186.53,-368.92"/>
<text text-anchor="start" x="188.53" y="-374.32" font-family="sans-serif" font-size="12.00">D</text>
<polygon fill="white" stroke="transparent" points="169.53,-417.01 169.53,-436.01 185.53,-436.01 185.53,-417.01 169.53,-417.01"/>
<polyline fill="none" stroke="black" points="185.53,-417.01 185.53,-436.01 "/>
<text text-anchor="start" x="172.53" y="-423.41" font-family="sans-serif" font-size="12.00">U</text>
<polygon fill="white" stroke="transparent" points="185.53,-417.01 185.53,-436.01 218.53,-436.01 218.53,-417.01 185.53,-417.01"/>
<polygon fill="none" stroke="black" points="185.53,-417.01 185.53,-436.01 218.53,-436.01 218.53,-417.01 185.53,-417.01"/>
<text text-anchor="start" x="188.53" y="-423.41" font-family="sans-serif" font-size="12.00">OHS</text>
</g>
<!-- GestionClientesContext -->
<g id="node3" class="node">
<title>GestionClientesContext</title>
<polygon fill="none" stroke="black" stroke-width="2" points="542.57,-224.19 532.9,-222.9 523.5,-221.51 514.41,-220.02 505.67,-218.45 497.31,-216.79 489.38,-215.06 481.89,-213.25 474.89,-211.38 468.39,-209.45 462.43,-207.47 457.02,-205.43 452.19,-203.36 447.95,-201.25 444.31,-199.12 441.29,-196.95 438.89,-194.78 437.11,-192.59 435.96,-190.39 435.43,-188.19 435.51,-185.99 436.21,-183.81 437.5,-181.64 439.37,-179.49 441.81,-177.36 444.8,-175.26 448.32,-173.19 452.34,-171.16 456.84,-169.17 461.79,-167.23 467.17,-165.34 472.94,-163.49 479.08,-161.71 485.56,-159.98 492.35,-158.32 499.41,-156.72 506.71,-155.19 514.23,-153.74 521.94,-152.36 529.79,-151.05 537.78,-149.83 545.87,-148.7 554.03,-147.65 562.23,-146.69 570.46,-145.82 578.69,-145.04 586.9,-144.36 595.07,-143.78 603.18,-143.3 611.22,-142.93 619.17,-142.65 627.01,-142.48 634.74,-142.42 642.35,-142.47 649.82,-142.63 657.14,-142.9 664.31,-143.28 671.33,-143.77 678.19,-144.37 684.87,-145.09 691.38,-145.91 697.72,-146.85 703.88,-147.9 709.85,-149.05 715.64,-150.31 721.24,-151.67 726.64,-153.13 731.85,-154.69 736.85,-156.35 741.64,-158.1 746.21,-159.94 750.57,-161.86 754.69,-163.85 758.57,-165.92 762.21,-168.06 765.59,-170.26 768.7,-172.51 771.53,-174.82 774.07,-177.16 776.31,-179.54 778.23,-181.95 779.81,-184.38 781.06,-186.82 781.94,-189.27 782.45,-191.71 782.58,-194.14 782.3,-196.56 781.62,-198.94 780.51,-201.3 778.97,-203.6 776.98,-205.86 774.54,-208.06 771.65,-210.19 768.28,-212.25 764.45,-214.23 760.15,-216.12 755.38,-217.92 750.14,-219.62 744.44,-221.22 738.28,-222.7 731.69,-224.07 724.65,-225.32 717.2,-226.44 709.35,-227.44 701.13,-228.31 692.54,-229.05 683.62,-229.65 674.4,-230.12 664.9,-230.45 655.16,-230.65 645.2,-230.71 635.08,-230.63 624.81,-230.42 614.45,-230.08 604.03,-229.6 593.59,-229 583.17,-228.27 572.82,-227.43 562.57,-226.46 552.48,-225.38 542.57,-224.19"/>
<text text-anchor="middle" x="619.53" y="-181.53" font-family="sans-serif" font-size="16.00">GestionClientesContext</text>
</g>
<!-- GestionOrdenesContext&#45;&gt;GestionClientesContext -->
<g id="edge2" class="edge">
<title>GestionOrdenesContext&#45;&gt;GestionClientesContext</title>
<path fill="none" stroke="black" stroke-width="2" d="M306.57,-290.79C371.89,-268.98 453.43,-241.77 516.9,-220.58"/>
<text text-anchor="middle" x="454.03" y="-253.53" font-family="sans-serif" font-size="12.00">Partnership</text>
</g>
<!-- GestionPagosContext -->
<g id="node5" class="node">
<title>GestionPagosContext</title>
<polygon fill="none" stroke="black" stroke-width="2" points="97.9,-219.5 90,-217.75 82.4,-215.91 75.16,-214 68.28,-212.02 61.81,-209.98 55.78,-207.88 50.19,-205.73 45.09,-203.55 40.49,-201.33 36.41,-199.09 32.86,-196.83 29.86,-194.56 27.42,-192.28 25.55,-190.01 24.25,-187.74 23.52,-185.48 23.37,-183.25 23.79,-181.04 24.77,-178.86 26.31,-176.72 28.4,-174.61 31.01,-172.55 34.14,-170.54 37.77,-168.58 41.88,-166.68 46.44,-164.83 51.44,-163.05 56.84,-161.33 62.62,-159.67 68.76,-158.09 75.22,-156.57 81.97,-155.14 88.99,-153.77 96.25,-152.48 103.71,-151.28 111.35,-150.15 119.14,-149.1 127.04,-148.14 135.03,-147.26 143.08,-146.47 151.16,-145.76 159.26,-145.14 167.33,-144.62 175.37,-144.18 183.34,-143.84 191.24,-143.58 199.03,-143.43 206.7,-143.37 214.23,-143.4 221.62,-143.53 228.84,-143.76 235.89,-144.09 242.75,-144.52 249.41,-145.06 255.87,-145.69 262.12,-146.42 268.15,-147.25 273.96,-148.19 279.54,-149.23 284.9,-150.36 290.02,-151.6 294.9,-152.93 299.55,-154.36 303.96,-155.88 308.12,-157.5 312.04,-159.2 315.72,-160.99 319.15,-162.87 322.32,-164.82 325.25,-166.85 327.91,-168.95 330.32,-171.11 332.46,-173.33 334.34,-175.61 335.93,-177.93 337.25,-180.29 338.29,-182.69 339.03,-185.11 339.47,-187.56 339.6,-190.01 339.42,-192.47 338.92,-194.92 338.09,-197.36 336.93,-199.78 335.42,-202.17 333.57,-204.51 331.36,-206.82 328.79,-209.06 325.86,-211.24 322.55,-213.35 318.88,-215.38 314.83,-217.33 310.41,-219.17 305.62,-220.92 300.46,-222.55 294.94,-224.07 289.06,-225.47 282.83,-226.75 276.27,-227.89 269.37,-228.9 262.17,-229.77 254.67,-230.49 246.89,-231.08 238.85,-231.51 230.58,-231.8 222.1,-231.94 213.42,-231.94 204.59,-231.78 195.64,-231.49 186.58,-231.04 177.45,-230.46 168.29,-229.73 159.12,-228.88 150,-227.89 140.93,-226.77 131.98,-225.54 123.16,-224.19 114.52,-222.73 106.09,-221.16 97.9,-219.5"/>
<text text-anchor="middle" x="193.53" y="-181.53" font-family="sans-serif" font-size="16.00">GestionPagosContext</text>
</g>
<!-- GestionOrdenesContext&#45;&gt;GestionPagosContext -->
<g id="edge3" class="edge">
<title>GestionOrdenesContext&#45;&gt;GestionPagosContext</title>
<path fill="none" stroke="black" stroke-width="2" d="M193.53,-285.85C193.53,-268.68 193.53,-248.85 193.53,-231.43"/>
<text text-anchor="middle" x="228.03" y="-253.53" font-family="sans-serif" font-size="12.00">Partnership</text>
</g>
<!-- GestionEnviosContext -->
<g id="node4" class="node">
<title>GestionEnviosContext</title>
<polygon fill="none" stroke="black" stroke-width="2" points="647.81,-87.74 637.72,-88.3 627.63,-88.73 617.55,-89.04 607.55,-89.22 597.64,-89.28 587.88,-89.2 578.3,-89 568.94,-88.67 559.82,-88.21 550.99,-87.62 542.46,-86.9 534.28,-86.06 526.46,-85.09 519.02,-84 511.99,-82.8 505.39,-81.48 499.22,-80.04 493.51,-78.51 488.26,-76.87 483.48,-75.13 479.18,-73.3 475.35,-71.39 472,-69.4 469.13,-67.33 466.73,-65.2 464.8,-63.01 463.32,-60.76 462.29,-58.47 461.7,-56.14 461.54,-53.78 461.79,-51.4 462.43,-49 463.46,-46.6 464.86,-44.19 466.61,-41.79 468.7,-39.41 471.11,-37.05 473.82,-34.71 476.82,-32.42 480.1,-30.16 483.63,-27.96 487.41,-25.81 491.42,-23.73 495.65,-21.71 500.09,-19.77 504.73,-17.9 509.55,-16.12 514.56,-14.43 519.73,-12.83 525.07,-11.33 530.56,-9.92 536.21,-8.62 542,-7.43 547.93,-6.34 553.99,-5.36 560.19,-4.5 566.52,-3.74 572.97,-3.1 579.55,-2.58 586.24,-2.17 593.04,-1.88 599.95,-1.7 606.96,-1.64 614.06,-1.68 621.25,-1.85 628.52,-2.12 635.86,-2.5 643.25,-2.99 650.69,-3.58 658.16,-4.28 665.65,-5.08 673.14,-5.98 680.61,-6.98 688.05,-8.06 695.43,-9.24 702.73,-10.51 709.93,-11.85 717.01,-13.28 723.93,-14.79 730.68,-16.37 737.23,-18.02 743.55,-19.73 749.61,-21.51 755.38,-23.34 760.85,-25.23 765.97,-27.17 770.72,-29.15 775.09,-31.18 779.03,-33.24 782.53,-35.33 785.56,-37.46 788.1,-39.6 790.13,-41.76 791.64,-43.94 792.6,-46.12 793,-48.31 792.84,-50.49 792.1,-52.66 790.77,-54.83 788.86,-56.97 786.36,-59.09 783.28,-61.19 779.62,-63.24 775.39,-65.26 770.6,-67.23 765.26,-69.15 759.4,-71.01 753.04,-72.81 746.19,-74.55 738.88,-76.21 731.14,-77.79 723.01,-79.29 714.5,-80.7 705.67,-82.02 696.54,-83.24 687.15,-84.36 677.54,-85.38 667.76,-86.28 657.83,-87.07 647.81,-87.74"/>
<text text-anchor="middle" x="619.53" y="-40.96" font-family="sans-serif" font-size="16.00">GestionEnviosContext</text>
</g>
<!-- GestionClientesContext&#45;&gt;GestionEnviosContext -->
<g id="edge4" class="edge">
<title>GestionClientesContext&#45;&gt;GestionEnviosContext</title>
<path fill="none" stroke="black" stroke-width="2" d="M619.53,-142.38C619.53,-125.49 619.53,-106.02 619.53,-89.01"/>
<text text-anchor="middle" x="654.03" y="-110.92" font-family="sans-serif" font-size="12.00">Partnership</text>
</g>
<!-- GestionAutorizacionAutenticacionContext -->
<g id="node6" class="node">
<title>GestionAutorizacionAutenticacionContext</title>
<polygon fill="none" stroke="black" stroke-width="2" points="615.42,-372.42 598.15,-371.83 581.15,-371.13 564.49,-370.31 548.24,-369.39 532.46,-368.36 517.21,-367.22 502.57,-365.99 488.57,-364.66 475.28,-363.23 462.74,-361.72 451.01,-360.13 440.11,-358.45 430.08,-356.7 420.95,-354.88 412.76,-353 405.51,-351.06 399.22,-349.06 393.91,-347.01 389.57,-344.92 386.21,-342.79 383.82,-340.63 382.4,-338.44 381.92,-336.23 382.37,-334 383.72,-331.76 385.96,-329.52 389.05,-327.28 392.96,-325.05 397.65,-322.82 403.09,-320.62 409.23,-318.44 416.04,-316.29 423.48,-314.18 431.5,-312.1 440.06,-310.07 449.11,-308.09 458.62,-306.16 468.54,-304.3 478.82,-302.5 489.44,-300.77 500.34,-299.12 511.5,-297.54 522.88,-296.05 534.43,-294.64 546.14,-293.33 557.97,-292.11 569.89,-290.98 581.88,-289.96 593.92,-289.05 605.99,-288.24 618.06,-287.54 630.12,-286.95 642.15,-286.47 654.15,-286.11 666.1,-285.87 677.98,-285.75 689.8,-285.74 701.54,-285.86 713.19,-286.09 724.75,-286.44 736.21,-286.91 747.56,-287.5 758.79,-288.21 769.9,-289.03 780.87,-289.96 791.7,-291.01 802.37,-292.16 812.87,-293.42 823.19,-294.79 833.31,-296.25 843.21,-297.81 852.87,-299.46 862.28,-301.2 871.4,-303.02 880.22,-304.91 888.71,-306.88 896.83,-308.92 904.56,-311.01 911.87,-313.16 918.72,-315.36 925.09,-317.6 930.93,-319.88 936.22,-322.19 940.91,-324.52 944.98,-326.87 948.4,-329.22 951.12,-331.58 953.13,-333.93 954.38,-336.27 954.85,-338.59 954.52,-340.89 953.36,-343.15 951.35,-345.37 948.48,-347.55 944.73,-349.68 940.09,-351.75 934.56,-353.75 928.13,-355.68 920.82,-357.54 912.62,-359.32 903.55,-361.01 893.63,-362.61 882.88,-364.12 871.32,-365.52 858.99,-366.83 845.93,-368.02 832.17,-369.11 817.76,-370.08 802.75,-370.94 787.19,-371.68 771.14,-372.3 754.67,-372.8 737.82,-373.18 720.68,-373.43 703.3,-373.57 685.76,-373.58 668.13,-373.47 650.49,-373.24 632.89,-372.89 615.42,-372.42"/>
<text text-anchor="middle" x="674.53" y="-325.72" font-family="sans-serif" font-size="16.00">GestionAutorizacionAutenticacionContext</text>
</g>
<!-- GestionAutorizacionAutenticacionContext&#45;&gt;GestionClientesContext -->
<g id="edge5" class="edge">
<title>GestionAutorizacionAutenticacionContext&#45;&gt;GestionClientesContext</title>
<path fill="none" stroke="black" stroke-width="2" d="M658.03,-285.85C651.32,-268.51 643.56,-248.47 636.78,-230.93"/>
<text text-anchor="middle" x="724.03" y="-253.53" font-family="sans-serif" font-size="12.00"> &#160;&#160;&#160;&#160;&#160;&#160;&#160;&#160;&#160;&#160;&#160;&#160;&#160;&#160;&#160;&#160;&#160;&#160;&#160;&#160;&#160;&#160;&#160;&#160;&#160;&#160;&#160;&#160;&#160;&#160;&#160;&#160;&#160;&#160;&#160;&#160;&#160;&#160;&#160;</text>
<polygon fill="white" stroke="transparent" points="617.78,-220.93 617.78,-239.93 633.78,-239.93 633.78,-220.93 617.78,-220.93"/>
<polyline fill="none" stroke="black" points="633.78,-220.93 633.78,-239.93 "/>
<text text-anchor="start" x="620.78" y="-227.33" font-family="sans-serif" font-size="12.00">D</text>
<polygon fill="white" stroke="transparent" points="633.78,-220.93 633.78,-239.93 655.78,-239.93 655.78,-220.93 633.78,-220.93"/>
<polygon fill="none" stroke="black" points="633.78,-220.93 633.78,-239.93 655.78,-239.93 655.78,-220.93 633.78,-220.93"/>
<text text-anchor="start" x="636.78" y="-227.33" font-family="sans-serif" font-size="12.00">CF</text>
<polygon fill="white" stroke="transparent" points="640.03,-275.85 640.03,-294.85 656.03,-294.85 656.03,-275.85 640.03,-275.85"/>
<polyline fill="none" stroke="black" points="656.03,-275.85 656.03,-294.85 "/>
<text text-anchor="start" x="643.03" y="-282.25" font-family="sans-serif" font-size="12.00">U</text>
<polygon fill="white" stroke="transparent" points="656.03,-275.85 656.03,-294.85 677.03,-294.85 677.03,-275.85 656.03,-275.85"/>
<polygon fill="none" stroke="black" points="656.03,-275.85 656.03,-294.85 677.03,-294.85 677.03,-275.85 656.03,-275.85"/>
<text text-anchor="start" x="659.03" y="-282.25" font-family="sans-serif" font-size="12.00">PL</text>
</g>
</g>
</svg>
